<?xml version="1.0" encoding="UTF-8" standalone="no"?>
<svg viewBox="0 0 740.75604 708.38928" xmlns="http://www.w3.org/2000/svg" xmlns:xlink="http://www.w3.org/1999/xlink">
<defs>
<filter id="filter4711">
<feGaussianBlur stdDeviation="10.01594"/>
</filter>
<filter height="1.27096" id="filter4112-5-8" width="1.23432" x="-.11716" y="-.13548">
<feGaussianBlur stdDeviation="9.73195"/>
</filter>
<linearGradient id="linearGradient3900">
<stop offset="0" stop-color="#f0f"/>
<stop offset="1" stop-color="#f0f" stop-opacity="0"/>
</linearGradient>
<linearGradient id="linearGradient3973-9-44">
<stop offset="0" stop-color="#fff"/>
<stop offset="1" stop-color="#fff" stop-opacity="0"/>
</linearGradient>
<linearGradient gradientUnits="userSpaceOnUse" id="linearGradient6504" x1="197.28711" x2="90.59235" xlink:href="#linearGradient3973-9-44" y1="-1078.40007" y2="-664.68568"/>
<linearGradient gradientTransform="matrix(-.54257,.14635,-.2991,-.26547,718.04314,141.22157)" gradientUnits="userSpaceOnUse" id="linearGradient6506" x1="157.18742" x2="151.48305" xlink:href="#linearGradient3973-9-44" y1="100.99799" y2="128.88608"/>
<linearGradient gradientTransform="matrix(-.54257,.14635,-.2991,-.26547,765.61377,139.50575)" gradientUnits="userSpaceOnUse" id="linearGradient6508" x1="157.18742" x2="151.48305" xlink:href="#linearGradient3973-9-44" y1="100.99799" y2="128.88608"/>
<radialGradient cx="-297.84091" cy="1027.7271" gradientTransform="matrix(.66095,-.08459,.07201,.5627,210.63876,-1417.3815)" gradientUnits="userSpaceOnUse" id="radialGradient6500" r="251.31535" xlink:href="#linearGradient3900"/>
<radialGradient cx="-297.84091" cy="1027.7271" gradientTransform="matrix(.66095,-.08459,.07201,.5627,206.49225,-1417.3815)" gradientUnits="userSpaceOnUse" id="radialGradient6502" r="251.31535" xlink:href="#linearGradient3900"/>
</defs>
<g transform="matrix(2.1929,0,0,2.1929,177.25486,2009.28687)">
<path d="m259.8663,144.73158c0,47.6067-38.87662,86.19956-86.83337,86.19956s-86.83338-38.59286-86.83338-86.19956 38.87663-86.19955 86.83338-86.19955 86.83337,38.59286 86.83337,86.19955z" filter="url(#filter4112-5-8)" opacity=".77" transform="matrix(1.3024,0,-.26814,.28467,-95.43886,-690.90664)"/>
<path d="m217.3763-767.57383c0,75.11663-61.3418,136.01069-137.01076,136.01069s-137.01077-60.89406-137.01077-136.01069 61.34181-136.01069 137.01077-136.01069 137.01076,60.89406 137.01076,136.01069z" fill="#800080"/>
<path d="m220.14063-767.57386c0,75.11662-61.34179,136.01072-137.01074,136.01072s-137.01078-60.8941-137.01078-136.01072 61.34181-136.01068 137.01078-136.01068 137.01074,60.89407 137.01074,136.01068z" fill="url(#radialGradient6500)"/>
<path d="m-17.20752-839.44999c3.32173-2.59917 6.72487-5.12069 9.97023-7.83147 2.9662-2.83855 6.5891-4.591 9.62784-7.24089 2.81859-2.25824 5.38486-4.75979 8.05907-7.17008 1.26467-1.34762 2.65371-2.58668 4.05498-3.82477 4.5951-4.02448 7.68303-.75287 3.08795,3.27167-1.36432,1.17768-2.6435,2.40725-3.89464,3.68249-2.83025,2.53588-5.54312,5.18372-8.51868,7.56827-3.17043,2.59057-6.57035,4.5765-9.67646,7.28129-3.7723,3.10591-7.65433,6.10206-11.55802,8.99319-5.02182,3.21928-6.17409-1.5104-1.15229-4.7297z"/>
<path d="m-328.40625,233.71875c.18255.0101.5669-.1765 0,0zc-73.61573,18.45834-137.46045,72.66983-166.1875,143.09375-28.37552,66.80204-24.56098,146.75201 11,210.25 34.5272,63.93432 98.89019,110.76314 170.4095,123.56206 71.40961,13.76068 148.2854-5.56209 203.94828-52.58224 50.75894-41.84703 83.79544-105.02033 87.80526-170.81922 1.75481-25.82999-.68107-51.88056-7.10054-76.87935 14.47326,67.3115-3.04543,140.49393-46.65625,193.625-41.23529,51.72783-105.30171,84.87458-171.71438,87.81818-64.76965,3.59091-130.54808-20.39666-176.9464-65.70402-47.71263-45.68857-74.94205-112.31582-71.5199-178.70719 2.88205-73.41778 43.00538-143.77864 104.18068-184.06322 19.30996-12.8281 40.57661-22.86906 62.78125-29.59375z" filter="url(#filter4711)" transform="matrix(.54,0,0,.54243,224.38909,-1019.307)"/>
<path d="m215.99412-767.57386c0,75.11662-61.34179,136.01072-137.01075,136.01072s-137.01077-60.8941-137.01077-136.01072 61.34181-136.01068 137.01077-136.01068 137.01075,60.89407 137.01075,136.01068z" fill="url(#radialGradient6502)"/>
<path d="m67.01887-815.47082c0,22.9658-13.70116,41.58328-30.60241,41.58328s-30.6024-18.61748-30.6024-41.58328 13.70117-41.58329 30.6024-41.58329 30.60241,18.61749 30.60241,41.58329z" fill="#f9f9f9"/>
<path d="m153.58304-806.67664c0,22.9658-12.49224,41.58328-27.90221,41.58328s-27.90218-18.61748-27.90218-41.58328 12.49224-41.58329 27.90218-41.58329 27.90221,18.61748 27.90221,41.58329z" fill="#f9f9f9"/>
<path d="m169.14978-837.08456c-3.68266-2.05613-7.43378-4.02296-11.05819-6.20113-3.36828-2.34742-7.218-3.52054-10.62887-5.67034-3.13299-1.79683-6.05418-3.87294-9.06794-5.84222-1.45729-1.13654-3.02068-2.14675-4.59604-3.15406-5.16051-3.26811-7.70726.44037-2.54678,3.70854 1.52954.95332 2.98294,1.97103 4.4157,3.03818 3.18731,2.06933 6.2759,4.26738 9.58344,6.16482 3.53184,2.07092 7.19722,3.50905 10.6831,5.70277 4.20598,2.48736 8.50341,4.84934 12.80608,7.10422 5.458,2.40676 5.86749-2.444.4095-4.85078z"/>
<path d="m80.7373-895.31597c-29.15485.28637-61.47088,8.95451-81.10834,31.24092 19.60297,72.43883 113.06256,114.29159 179.3938,77.24342 8.37059-4.75159 19.57957-9.5299 24.3164-17.23082-14.77044-52.90648-67.40075-92.82237-122.60186-91.25352z" fill="url(#linearGradient6504)"/>
<g transform="matrix(1.13252,0,0,1.70409,-637.29446,-1037.456)">
<path d="m171.13147,119.37877c0,8.40118-6.52673,15.21169-14.57787,15.21169s-14.57786-6.81051-14.57786-15.21169 6.52673-15.21169 14.57786-15.21169 14.57787,6.81051 14.57787,15.21169z" transform="matrix(.84258,0,0,.84258,471.14016,23.75489)"/>
<path d="m605.66314,134.60426c2.58606-.78514 3.89522-2.41527 3.26391-3.8335-5.04318-.3142-10.23043.56622-14.88229,1.11525 .76566,2.46016 7.25062,4.17951 11.61838,2.71825z" fill="url(#linearGradient6506)"/>
</g>
<g transform="matrix(1.13252,0,0,1.70409,-602.40559,-1022.814)">
<path d="m171.13147,119.37877c0,8.40118-6.52673,15.21169-14.57787,15.21169s-14.57786-6.81051-14.57786-15.21169 6.52673-15.21169 14.57786-15.21169 14.57787,6.81051 14.57787,15.21169z" transform="matrix(.84258,0,0,.84258,517.44315,22.03907)"/>
<path d="m653.23377,132.88844c2.58606-.78514 3.89522-2.41527 3.26391-3.8335-5.04318-.3142-10.23043.56622-14.88229,1.11525 .76566,2.46016 7.25062,4.17951 11.61838,2.71825z" fill="url(#linearGradient6508)"/>
</g>
<path d="m80.7373-895.31597c-29.15485.28637-61.47088,8.95451-81.10834,31.24092 19.60297,72.43883 113.06256,114.29159 179.3938,77.24342 8.37059-4.75159 19.57957-9.5299 24.3164-17.23082-14.77044-52.90648-67.40075-92.82237-122.60186-91.25352z" fill="url(#linearGradient6504)"/>
<path d="m80.7373-895.31597c-29.15485.28637-61.47088,8.95451-81.10834,31.24092 19.60297,72.43883 113.06256,114.29159 179.3938,77.24342 8.37059-4.75159 19.57957-9.5299 24.3164-17.23082-14.77044-52.90648-67.40075-92.82237-122.60186-91.25352z" fill="url(#linearGradient6504)"/>
<path d="m24.84617-728.8547c7.44723-.16045 14.81724-.089 22.1985.94923 6.85124,1.25552 13.21831,3.94743 19.71571,6.30651 4.78242,2.183 9.23985,5.009 13.63759,7.86813 3.81226,2.29633 7.8718,4.13985 11.76433,6.28959 3.95354,1.88082 8.07992,3.51995 12.23995,4.92524 3.00122.89653 6.1251,1.15735 9.22987,1.41416 8.78225.74568 7.72768,13.16566-1.05457,12.41996-4.12693-.35794-8.2681-.77387-12.23508-2.04914-4.86628-1.70001-9.72578-3.56698-14.32983-5.86819-4.06664-2.41697-8.5392-4.15448-12.51488-6.75111-3.51097-2.42396-7.25371-4.5433-11.01548-6.54114-5.67909-2.08628-11.22403-4.45176-17.19062-5.67326-6.79649-.97629-13.58429-.94395-20.44551-.82534-8.81384,0-8.81384-12.46464 0-12.46464z" stroke="#000" stroke-width="3.68736"/>
</g>
</svg>
